<svg width="172" height="81" viewBox="0 0 172 81" fill="none" xmlns="http://www.w3.org/2000/svg">
<path fill-rule="evenodd" clip-rule="evenodd" d="M6.61523 8.03296H150.972V58.1209H6.61523V8.03296ZM12.6882 13.5984H36.7493C39.5821 13.5984 41.8819 16.3201 41.8819 19.6727V28.1154C41.8819 31.468 39.5821 34.1902 36.7493 34.1902H12.6882C9.85535 34.1902 7.55556 31.468 7.55556 28.1154V19.6727C7.55556 16.3201 9.85535 13.5984 12.6882 13.5984ZM49.748 12.7634H67.8709C70.396 12.7634 72.4459 15.1899 72.4459 18.1781V27.9405C72.4459 30.9288 70.396 33.3552 67.8709 33.3552H49.748C47.2233 33.3552 45.173 30.9288 45.173 27.9405V18.1781C45.173 15.1899 47.2233 12.7634 49.748 12.7634ZM81.0766 12.7634H107.546C110.492 12.7634 112.885 15.5948 112.885 19.0825V27.0361C112.885 30.5239 110.492 33.3552 107.546 33.3552H81.0766C78.1299 33.3552 75.7375 30.5239 75.7375 27.0361V19.0825C75.7375 15.5948 78.1299 12.7634 81.0766 12.7634ZM130.283 17.3408V49.9263C130.283 53.0667 128.129 55.6165 125.475 55.6165H120.984C118.331 55.6165 116.176 53.0667 116.176 49.9263V17.3408C116.176 14.1999 118.331 11.6506 120.984 11.6506H125.475C128.129 11.6506 130.283 14.1999 130.283 17.3408ZM149.092 17.3408V49.9263C149.092 53.0667 146.937 55.6165 144.284 55.6165H139.793C137.139 55.6165 134.985 53.0667 134.985 49.9263V17.3408C134.985 14.1999 137.139 11.6506 139.793 11.6506H144.284C146.937 11.6506 149.092 14.1999 149.092 17.3408Z" fill="#EAC46F"/>
<path d="M136.918 69.4615C136.918 63.2024 141.153 58.1208 146.369 58.1208C151.585 58.1208 155.82 63.2024 155.82 69.4615C155.82 75.7206 151.585 80.8022 146.369 80.8022C141.153 80.8022 136.918 75.7206 136.918 69.4615Z" fill="#323232"/>
<path d="M134.083 69.4615C134.083 63.2024 138.318 58.1208 143.534 58.1208C148.75 58.1208 152.985 63.2024 152.985 69.4615C152.985 75.7206 148.75 80.8022 143.534 80.8022C138.318 80.8022 134.083 75.7206 134.083 69.4615Z" fill="#4E4C4E"/>
<path d="M46.5439 69.4615C46.5439 63.2024 50.7787 58.1208 55.9945 58.1208C61.2103 58.1208 65.445 63.2024 65.445 69.4615C65.445 75.7206 61.2103 80.8022 55.9945 80.8022C50.7787 80.8022 46.5439 75.7206 46.5439 69.4615Z" fill="#323232"/>
<path d="M43.709 69.4615C43.709 63.2024 47.9438 58.1208 53.1595 58.1208C58.3753 58.1208 62.6101 63.2024 62.6101 69.4615C62.6101 75.7206 58.3753 80.8022 53.1595 80.8022C47.9438 80.8022 43.709 75.7206 43.709 69.4615Z" fill="#4E4C4E"/>
<path fill-rule="evenodd" clip-rule="evenodd" d="M14.1756 0H142.703C147.919 0 152.154 4.23479 152.154 9.45055V68.044H4.7251V9.45055C4.7251 4.23479 8.95989 0 14.1756 0ZM15.1018 11.3407H26.4803C29.8602 11.3407 32.6042 14.0846 32.6042 17.4646V27.898C32.6042 31.278 29.8602 34.022 26.4803 34.022H15.1018C11.7218 34.022 8.97784 31.278 8.97784 27.898V17.4646C8.97784 14.0846 11.7218 11.3407 15.1018 11.3407ZM40.6183 11.3407H51.9967C55.3767 11.3407 58.1207 14.0846 58.1207 17.4646V27.898C58.1207 31.278 55.3767 34.022 51.9967 34.022H40.6183C37.2383 34.022 34.4943 31.278 34.4943 27.898V17.4646C34.4943 14.0846 37.2383 11.3407 40.6183 11.3407ZM91.1976 11.3407C94.588 11.3407 97.3405 14.0931 97.3405 17.4835V27.8791C97.3405 31.2695 94.588 34.022 91.1976 34.022C87.8072 34.022 85.0548 31.2695 85.0548 27.8791V17.4835C85.0548 14.0931 87.8072 11.3407 91.1976 11.3407ZM60.0108 11.3407H83.6372V60.011H60.0108V11.3407ZM99.2306 9.92308H150.972V31.1868H99.2306V9.92308Z" fill="#FFD038"/>
<path d="M120.988 17.7742H131.814C132.608 17.7742 133.253 18.4187 133.253 19.213V30.9837C133.253 31.7775 132.608 32.4225 131.814 32.4225H120.988C120.194 32.4225 119.549 31.7775 119.549 30.9837V19.213C119.549 18.4187 120.194 17.7742 120.988 17.7742Z" fill="#637C92"/>
<path d="M127.11 28.7699C127.11 25.2495 129.968 22.3907 133.489 22.3907C137.01 22.3907 139.868 25.2495 139.868 28.7699C139.868 32.2907 137.01 35.149 133.489 35.149C129.968 35.149 127.11 32.2907 127.11 28.7699Z" stroke="#485C6D" stroke-width="3" stroke-miterlimit="3" stroke-linecap="square"/>
<path d="M120.204 17.7742H121.73C122.091 17.7742 122.384 18.0671 122.384 18.4286V31.7681C122.384 32.1291 122.091 32.4225 121.73 32.4225H120.204C119.843 32.4225 119.549 32.1291 119.549 31.7681V18.4286C119.549 18.0671 119.843 17.7742 120.204 17.7742Z" fill="#6E879D"/>
<path d="M149.319 26.2797H99.7031V35.7302H149.319V26.2797Z" fill="#637C92"/>
<path d="M134.916 11.8727H141.513C142.431 11.8727 143.176 12.6174 143.176 13.535V15.7521C143.176 16.6698 142.431 17.415 141.513 17.415H134.916C133.998 17.415 133.253 16.6698 133.253 15.7521V13.535C133.253 12.6174 133.998 11.8727 134.916 11.8727Z" fill="#566771"/>
<path d="M137.95 9.38208H138.007C138.513 9.38208 138.923 9.7927 138.923 10.2988V13.555C138.923 14.0606 138.513 14.4717 138.007 14.4717H137.95C137.444 14.4717 137.033 14.0606 137.033 13.555V10.2988C137.033 9.7927 137.444 9.38208 137.95 9.38208Z" fill="#819196"/>
<path fill-rule="evenodd" clip-rule="evenodd" d="M108.209 0H142.231C147.707 0 152.154 4.44648 152.154 9.92308V41.5824H98.2856V9.92308C98.2856 4.44648 102.732 0 108.209 0ZM100.176 11.1044H149.791V29.2967H100.176V11.1044Z" fill="#FFB333"/>
<path d="M112.216 26.6978H146.257C151.076 26.6978 154.989 30.6108 154.989 35.4301V44.427C154.989 49.2463 151.076 53.1593 146.257 53.1593H112.216C107.396 53.1593 103.483 49.2463 103.483 44.427V35.4301C103.483 30.6108 107.396 26.6978 112.216 26.6978Z" fill="#FFD038"/>
<path d="M128.055 36.6208H118.132C115.263 36.6208 112.934 38.9499 112.934 41.8186V63.0824H169.637V41.8186C169.637 38.9499 167.308 36.6208 164.44 36.6208H155.462V32.3681C155.462 29.2385 152.921 26.6978 149.791 26.6978H133.725C130.596 26.6978 128.055 29.2385 128.055 32.3681V36.6208Z" fill="#FFB333"/>
<path d="M117.659 60.011H167.275C169.883 60.011 172 62.1284 172 64.7363C172 67.3441 169.883 69.4615 167.275 69.4615H117.659C115.051 69.4615 112.934 67.3441 112.934 64.7363C112.934 62.1284 115.051 60.011 117.659 60.011Z" fill="#4E4C4F"/>
<path d="M120.495 48.434C120.495 45.8261 122.612 43.7087 125.22 43.7087C127.828 43.7087 129.945 45.8261 129.945 48.434C129.945 51.0419 127.828 53.1593 125.22 53.1593C122.612 53.1593 120.495 51.0419 120.495 48.434Z" fill="#C3E9EC"/>
<path d="M157.352 48.434C157.352 45.8261 159.469 43.7087 162.077 43.7087C164.685 43.7087 166.802 45.8261 166.802 48.434C166.802 51.0419 164.685 53.1593 162.077 53.1593C159.469 53.1593 157.352 51.0419 157.352 48.434Z" fill="#C3E9EC"/>
<path d="M121.203 55.2858H129.236C130.019 55.2858 130.654 55.9208 130.654 56.7033C130.654 57.4859 130.019 58.1209 129.236 58.1209H121.203C120.421 58.1209 119.786 57.4859 119.786 56.7033C119.786 55.9208 120.421 55.2858 121.203 55.2858Z" fill="#E44F41"/>
<path d="M158.061 55.2858H166.094C166.876 55.2858 167.511 55.9208 167.511 56.7033C167.511 57.4859 166.876 58.1209 166.094 58.1209H158.061C157.278 58.1209 156.643 57.4859 156.643 56.7033C156.643 55.9208 157.278 55.2858 158.061 55.2858Z" fill="#E44F41"/>
<path d="M34.4947 68.044C34.4947 61.6544 29.3073 56.467 22.9177 56.467C16.5282 56.467 11.3408 61.6544 11.3408 68.044H34.4947Z" fill="#EE7D30"/>
<path d="M103.483 68.044C103.483 61.6544 98.296 56.467 91.9065 56.467C85.517 56.467 80.3296 61.6544 80.3296 68.044H103.483Z" fill="#EE7D30"/>
<path d="M15.5933 69.4615C15.5933 63.2024 19.8281 58.1208 25.0438 58.1208C30.2596 58.1208 34.4944 63.2024 34.4944 69.4615C34.4944 75.7206 30.2596 80.8022 25.0438 80.8022C19.8281 80.8022 15.5933 75.7206 15.5933 69.4615Z" fill="#323232"/>
<path d="M12.7583 69.4615C12.7583 63.2024 16.9931 58.1208 22.2088 58.1208C27.4246 58.1208 31.6594 63.2024 31.6594 69.4615C31.6594 75.7206 27.4246 80.8022 22.2088 80.8022C16.9931 80.8022 12.7583 75.7206 12.7583 69.4615Z" fill="#4E4C4E"/>
<path d="M17.0898 69.4616C17.0898 66.0712 19.3835 63.3187 22.2087 63.3187C25.034 63.3187 27.3276 66.0712 27.3276 69.4616C27.3276 72.852 25.034 75.6044 22.2087 75.6044C19.3835 75.6044 17.0898 72.852 17.0898 69.4616Z" fill="#8F8B81"/>
<path d="M84.582 69.4615C84.582 63.2024 88.8168 58.1208 94.0326 58.1208C99.2483 58.1208 103.483 63.2024 103.483 69.4615C103.483 75.7206 99.2483 80.8022 94.0326 80.8022C88.8168 80.8022 84.582 75.7206 84.582 69.4615Z" fill="#323232"/>
<path d="M81.7471 69.4615C81.7471 63.2024 85.9819 58.1208 91.1976 58.1208C96.4134 58.1208 100.648 63.2024 100.648 69.4615C100.648 75.7206 96.4134 80.8022 91.1976 80.8022C85.9819 80.8022 81.7471 75.7206 81.7471 69.4615Z" fill="#4E4C4E"/>
<path d="M86.0786 69.4616C86.0786 66.0712 88.3723 63.3187 91.1975 63.3187C94.0227 63.3187 96.3164 66.0712 96.3164 69.4616C96.3164 72.852 94.0227 75.6044 91.1975 75.6044C88.3723 75.6044 86.0786 72.852 86.0786 69.4616Z" fill="#8F8B81"/>
<path d="M105.826 5.67033C105.826 4.58163 105.089 3.698 104.182 3.698C103.275 3.698 102.539 4.58163 102.539 5.67033C102.539 6.75903 103.275 7.64266 104.182 7.64266C105.089 7.64266 105.826 6.75903 105.826 5.67033Z" fill="#F9723A"/>
<path d="M106.319 5.67033C106.319 4.58163 105.582 3.698 104.675 3.698C103.768 3.698 103.031 4.58163 103.031 5.67033C103.031 6.75903 103.768 7.64266 104.675 7.64266C105.582 7.64266 106.319 6.75903 106.319 5.67033Z" fill="#FE9931"/>
<path d="M149.466 5.67033C149.466 4.58163 148.729 3.698 147.822 3.698C146.915 3.698 146.178 4.58163 146.178 5.67033C146.178 6.75903 146.915 7.64266 147.822 7.64266C148.729 7.64266 149.466 6.75903 149.466 5.67033Z" fill="#F9723A"/>
<path d="M149.958 5.67033C149.958 4.58163 149.222 3.698 148.315 3.698C147.408 3.698 146.671 4.58163 146.671 5.67033C146.671 6.75903 147.408 7.64266 148.315 7.64266C149.222 7.64266 149.958 6.75903 149.958 5.67033Z" fill="#FE9931"/>
<path fill-rule="evenodd" clip-rule="evenodd" d="M61.6271 9.9231H82.0214C83.1739 9.9231 84.11 10.9163 84.11 12.1393V58.4493C84.11 59.6727 83.1739 60.6655 82.0214 60.6655H61.6271C60.4747 60.6655 59.5386 59.6727 59.5386 58.4493V12.1393C59.5386 10.9163 60.4747 9.9231 61.6271 9.9231ZM65.8577 12.5726H77.7909C79.4873 12.5726 80.8647 14.0341 80.8647 15.8339V31.3305C80.8647 33.1308 79.4873 34.5923 77.7909 34.5923H65.8577C64.1613 34.5923 62.7839 33.1308 62.7839 31.3305V15.8339C62.7839 14.0341 64.1613 12.5726 65.8577 12.5726ZM65.8577 35.5761H77.7909C79.4873 35.5761 80.8647 37.0377 80.8647 38.8375V54.3341C80.8647 56.1344 79.4873 57.5959 77.7909 57.5959H65.8577C64.1613 57.5959 62.7839 56.1344 62.7839 54.3341V38.8375C62.7839 37.0377 64.1613 35.5761 65.8577 35.5761Z" fill="#FFB333"/>
<path d="M54.5767 49.9263H4.7251V51.5801H54.5767V49.9263Z" fill="#B49240"/>
<path d="M0 60.011H8.03297C9.85834 60.011 11.3407 61.4933 11.3407 63.3187V64.7363C11.3407 66.5616 9.85834 68.044 8.03297 68.044H0V60.011Z" fill="#5B5B5B"/>
<path d="M2.36279 48.6703V41.5824H6.14301C7.70755 41.5824 8.97818 42.853 8.97818 44.4176V48.6703H2.36279Z" fill="#FEAA1A"/>
<path d="M2.36279 48.6703V56.467H6.14301C7.70755 56.467 8.97818 55.1964 8.97818 53.6318V48.6703H2.36279Z" fill="#E14642"/>
<path d="M54.5767 39.9286H4.7251V41.5824H54.5767V39.9286Z" fill="#B49240"/>
<path d="M144.952 3.30774H107.546V8.03301H144.952V3.30774Z" fill="#4F424B"/>
<path d="M135.219 37.6788H141.453C142.08 37.6788 142.589 38.1882 142.589 38.8153C142.589 39.4423 142.08 39.9512 141.453 39.9512H135.219C134.592 39.9512 134.083 39.4423 134.083 38.8153C134.083 38.1882 134.592 37.6788 135.219 37.6788Z" fill="#7E5325"/>
<path d="M145.615 37.634H151.849C152.476 37.634 152.984 38.1429 152.984 38.77C152.984 39.397 152.476 39.9059 151.849 39.9059H145.615C144.988 39.9059 144.479 39.397 144.479 38.77C144.479 38.1429 144.988 37.634 145.615 37.634Z" fill="#7E5325"/>
<path d="M135.219 42.5956H141.453C142.08 42.5956 142.589 43.1045 142.589 43.7315C142.589 44.3586 142.08 44.8675 141.453 44.8675H135.219C134.592 44.8675 134.083 44.3586 134.083 43.7315C134.083 43.1045 134.592 42.5956 135.219 42.5956Z" fill="#7E5325"/>
<path d="M145.615 42.5502H151.849C152.476 42.5502 152.984 43.0591 152.984 43.6861C152.984 44.3132 152.476 44.8221 151.849 44.8221H145.615C144.988 44.8221 144.479 44.3132 144.479 43.6861C144.479 43.0591 144.988 42.5502 145.615 42.5502Z" fill="#7E5325"/>
<path d="M135.219 46.4952H141.453C142.08 46.4952 142.589 47.0046 142.589 47.6317C142.589 48.2587 142.08 48.7676 141.453 48.7676H135.219C134.592 48.7676 134.083 48.2587 134.083 47.6317C134.083 47.0046 134.592 46.4952 135.219 46.4952Z" fill="#7E5325"/>
<path d="M145.615 46.4504H151.849C152.476 46.4504 152.984 46.9593 152.984 47.5864C152.984 48.2134 152.476 48.7224 151.849 48.7224H145.615C144.988 48.7224 144.479 48.2134 144.479 47.5864C144.479 46.9593 144.988 46.4504 145.615 46.4504Z" fill="#7E5325"/>
<path d="M135.219 50.5652H141.453C142.08 50.5652 142.589 51.0741 142.589 51.7011C142.589 52.3282 142.08 52.8371 141.453 52.8371H135.219C134.592 52.8371 134.083 52.3282 134.083 51.7011C134.083 51.0741 134.592 50.5652 135.219 50.5652Z" fill="#7E5325"/>
<path d="M145.615 50.5198H151.849C152.476 50.5198 152.984 51.0287 152.984 51.6557C152.984 52.2828 152.476 52.7917 151.849 52.7917H145.615C144.988 52.7917 144.479 52.2828 144.479 51.6557C144.479 51.0287 144.988 50.5198 145.615 50.5198Z" fill="#7E5325"/>
<path d="M135.219 54.1946H141.453C142.08 54.1946 142.589 54.704 142.589 55.331C142.589 55.9581 142.08 56.467 141.453 56.467H135.219C134.592 56.467 134.083 55.9581 134.083 55.331C134.083 54.704 134.592 54.1946 135.219 54.1946Z" fill="#7E5325"/>
<path d="M145.615 54.1498H151.849C152.476 54.1498 152.984 54.6587 152.984 55.2857C152.984 55.9128 152.476 56.4217 151.849 56.4217H145.615C144.988 56.4217 144.479 55.9128 144.479 55.2857C144.479 54.6587 144.988 54.1498 145.615 54.1498Z" fill="#7E5325"/>
</svg>
