<svg width="182" height="190" viewBox="0 0 182 190" fill="none" xmlns="http://www.w3.org/2000/svg">
<path d="M130.501 163.534H113.135C112.557 163.534 112.102 163.068 112.102 162.498V161.681C112.102 161.102 112.566 160.646 113.135 160.646H130.501C131.079 160.646 131.534 161.111 131.534 161.681V162.498C131.524 163.068 131.06 163.534 130.501 163.534Z" fill="#B7B7C4"/>
<path d="M124.485 114.457H119.132V160.636H124.485V114.457Z" fill="#735639"/>
<path d="M126.484 35.8919L131.155 35.4454L132.102 44.6509C132.102 44.6509 130.785 45.0974 129.421 45.1734C128.028 45.2494 126.74 45.1734 126.74 45.1734L126.484 35.8919Z" fill="#0C0454"/>
<path d="M108.795 22.2404C107.26 25.4324 103.868 39.2644 103.868 39.2644C103.755 39.5589 103.868 39.8914 104.143 40.0814C105.034 40.6989 107.128 42.6464 111.202 43.9479C113.182 44.5749 118.033 45.3919 120.259 45.2304C120.667 45.1924 120.96 44.8409 120.96 44.8409L123.215 13.1204C113.665 12.6359 109.705 20.3689 108.795 22.2404Z" fill="#110580"/>
<path d="M112.519 40.0814C110.965 40.0814 109.724 37.8869 109.724 35.1034C109.724 32.3199 110.946 30.1254 112.519 30.1254C114.072 30.1254 115.314 32.3199 115.314 35.1034C115.314 37.9154 114.072 40.0814 112.519 40.0814ZM112.519 30.8189C111.372 30.8189 110.406 32.7854 110.406 35.1224C110.406 37.4594 111.372 39.4259 112.519 39.4259C113.665 39.4259 114.631 37.4594 114.631 35.1224C114.631 32.7854 113.665 30.8189 112.519 30.8189Z" fill="white"/>
<path d="M123.282 41.0504C131.23 41.0504 137.673 34.9555 137.673 27.4369C137.673 19.9184 131.23 13.8234 123.282 13.8234C115.333 13.8234 108.89 19.9184 108.89 27.4369C108.89 34.9555 115.333 41.0504 123.282 41.0504Z" fill="#FCB58A"/>
<path d="M129.63 39.6444C129.412 34.2579 129.127 27.4084 129.127 27.1994C129.127 27.1994 126.086 26.3824 124.352 24.7484C123.812 24.2259 123.424 23.7129 123.168 23.2094C123.376 23.9884 123.727 24.8054 124.447 25.6414C126.001 27.4464 128.369 28.7194 128.369 28.7194C128.35 28.9094 128.559 34.9609 128.256 40.1954C128.748 40.0339 129.184 39.8439 129.63 39.6444Z" fill="#E3996D"/>
<path d="M161.767 128.137C154.083 128.137 147.858 128.412 147.82 128.754C147.858 129.087 154.083 129.372 161.767 129.372C169.432 129.372 175.675 129.096 175.713 128.754C175.675 128.403 169.451 128.137 161.767 128.137ZM162.079 129.201C156.319 129.201 151.658 128.992 151.658 128.735C151.658 128.479 156.328 128.27 162.079 128.27C167.83 128.27 172.501 128.479 172.501 128.735C172.52 128.992 167.84 129.201 162.079 129.201Z" fill="#E8D4C1"/>
<path d="M161.767 128.137C154.064 128.137 147.82 128.412 147.82 128.754C147.82 129.096 154.064 129.372 161.767 129.372C169.47 129.372 175.713 129.096 175.713 128.754C175.713 128.412 169.47 128.137 161.767 128.137ZM162.079 129.201C156.319 129.201 151.658 128.992 151.658 128.735C151.658 128.479 156.328 128.27 162.079 128.27C167.83 128.27 172.501 128.479 172.501 128.735C172.52 128.992 167.84 129.201 162.079 129.201Z" fill="#E8D4C1"/>
<path d="M162.079 129.201C167.835 129.201 172.501 128.993 172.501 128.735C172.501 128.478 167.835 128.27 162.079 128.27C156.324 128.27 151.658 128.478 151.658 128.735C151.658 128.993 156.324 129.201 162.079 129.201Z" fill="#BA9C7E"/>
<path d="M169.744 75.4974C166.76 82.5939 164.638 90.0514 163.425 97.6704C162.212 105.289 161.89 113.022 162.477 120.717C162.809 125.021 163.444 129.315 164.344 133.533C164.514 134.293 165.68 133.979 165.509 133.219C163.899 125.752 163.216 118.124 163.415 110.495C163.624 102.905 164.732 95.3239 166.713 87.9899C167.821 83.8479 169.233 79.7819 170.9 75.8299C171.033 75.5354 170.768 75.1649 170.474 75.0889C170.133 74.9749 169.858 75.2029 169.744 75.4974Z" fill="#4C7378"/>
<path d="M170.133 107.617C167.148 114.096 165.377 121.078 164.893 128.194C164.761 130.179 164.723 132.184 164.799 134.169C164.837 134.948 166.04 134.948 166.002 134.169C165.746 127.225 166.76 120.28 168.986 113.706C169.612 111.854 170.341 110.011 171.175 108.225C171.507 107.531 170.464 106.914 170.133 107.617Z" fill="#4C7378"/>
<path d="M154.945 77.0934C156.85 83.6864 158.204 90.4219 159.209 97.2049C160.213 103.988 160.857 110.818 161.378 117.63C161.672 121.496 161.937 125.372 162.174 129.258C162.231 130.037 163.434 130.037 163.377 129.258C162.932 122.37 162.468 115.464 161.805 108.595C161.123 101.746 160.232 94.8869 158.877 88.1324C158.119 84.3039 157.21 80.5229 156.12 76.7704C155.893 76.0199 154.746 76.3334 154.945 77.0934Z" fill="#4C7378"/>
<path d="M147.896 96.8914C149.545 98.5824 150.559 100.739 151.449 102.886C152.435 105.261 153.297 107.693 154.045 110.163C155.523 115.046 156.584 120.062 157.134 125.125C157.447 127.966 157.617 130.825 157.636 133.704C157.636 134.483 158.839 134.483 158.839 133.704C158.801 128.469 158.261 123.235 157.267 118.105C156.262 112.984 154.765 107.93 152.804 103.085C151.781 100.558 150.672 98.0124 148.73 96.0459C148.19 95.4759 147.337 96.3309 147.896 96.8914Z" fill="#4C7378"/>
<path d="M156.205 120.879C155.315 119.786 154.206 119.036 153.278 118.665C152.349 118.295 151.61 118.295 151.392 118.532C151.174 118.77 151.222 119.501 151.544 120.385C151.866 121.268 152.397 122.332 153.193 123.32C153.988 124.308 154.936 125.03 155.77 125.515C156.584 125.999 157.286 126.199 157.494 126.075C157.75 125.904 157.901 125.182 157.731 124.204C157.579 123.216 157.096 121.971 156.205 120.879Z" fill="#4C7378"/>
<path d="M160.024 112.69C160.763 109.051 160.08 105.878 159.398 105.745C158.735 105.631 156.954 108.329 156.234 111.911C155.514 115.492 156.253 118.703 156.736 118.817C157.342 118.969 159.285 116.328 160.024 112.69Z" fill="#689399"/>
<path d="M156.765 118.789C157.516 118.021 155.711 115.021 152.732 112.087C149.753 109.152 146.729 107.396 145.977 108.163C145.225 108.931 147.031 111.931 150.01 114.865C152.989 117.8 156.013 119.556 156.765 118.789Z" fill="#4C7378"/>
<path d="M162.278 123.13C162.629 121.629 162.819 120.157 162.894 118.808C162.97 117.468 162.932 116.243 162.8 115.245C162.563 113.203 162.079 111.977 161.748 111.977C161.416 111.977 160.914 113.165 160.355 115.046C160.08 115.977 159.758 117.088 159.465 118.295C159.152 119.52 158.82 120.841 158.498 122.247C158.167 123.643 157.882 124.992 157.645 126.218C157.409 127.443 157.2 128.593 157.03 129.562C156.717 131.49 156.641 132.792 156.859 132.906C157.134 133.039 158.119 132.146 159.228 130.436C159.787 129.581 160.355 128.507 160.895 127.282C161.445 126.037 161.928 124.631 162.278 123.13Z" fill="#57848A"/>
<path d="M170.171 124.65C171.317 122.608 172.17 120.641 172.653 119.121C173.155 117.601 173.278 116.537 172.985 116.338C172.71 116.148 171.762 116.689 170.578 117.782C169.394 118.893 167.963 120.603 166.779 122.703C165.595 124.821 164.893 126.94 164.571 128.536C164.401 129.334 164.334 129.999 164.334 130.483C164.334 130.635 164.278 130.835 164.391 131.082C164.41 131.139 164.448 131.196 164.486 131.234C164.524 131.291 164.619 131.348 164.675 131.367C164.808 131.405 164.893 131.367 164.95 131.329C165.064 131.253 165.14 131.12 165.102 131.034C165.064 130.939 165.007 130.977 164.988 130.977C164.969 130.996 164.95 130.996 164.931 131.015C164.912 131.034 164.95 131.015 164.931 131.015C164.931 131.015 164.912 131.015 164.893 130.996C164.874 130.977 164.855 130.939 164.855 130.939C164.855 130.939 164.855 130.977 164.855 131.015C164.855 131.015 164.855 131.015 164.855 131.034L164.931 130.977C164.931 130.977 164.931 130.977 164.95 130.977C164.988 130.977 165.064 130.958 165.206 130.996H165.244H165.263H165.282C165.301 130.996 165.32 130.996 165.339 130.977C165.727 130.683 166.191 130.217 166.712 129.6C167.764 128.422 169.024 126.674 170.171 124.65Z" fill="#57848A"/>
<path d="M167.101 115.435C166.807 112.851 166.154 110.59 165.509 108.975C164.865 107.379 164.23 106.41 163.88 106.467C163.548 106.524 163.235 107.617 163.065 109.327C162.913 111.037 162.913 113.374 163.216 115.863C163.368 117.126 163.567 118.295 163.813 119.368C164.05 120.442 164.316 121.373 164.496 122.152C164.704 122.931 164.846 123.567 164.979 124.042C165.092 124.508 165.197 124.821 165.329 124.84C165.481 124.878 165.756 124.688 166.049 124.242C166.343 123.795 166.665 123.073 166.883 122.18C167.101 121.268 167.215 120.214 167.253 119.083C167.281 117.981 167.243 116.737 167.101 115.435Z" fill="#4C7378"/>
<path d="M151.08 102.981C149.583 101.537 147.953 100.53 146.655 99.9504C145.357 99.3709 144.41 99.2474 144.192 99.5229C143.983 99.7794 144.324 100.672 145.063 101.822C145.802 102.971 146.949 104.406 148.379 105.774C149.82 107.151 151.326 108.187 152.529 108.871C153.732 109.555 154.642 109.859 154.822 109.688C155.059 109.479 154.879 108.538 154.263 107.256C153.666 106.002 152.596 104.425 151.08 102.981Z" fill="#689399"/>
<path d="M148.834 93.1199C147.053 89.9469 144.448 88.1039 143.851 88.4744C143.273 88.8259 143.718 91.9514 145.442 95.0294C147.167 98.1074 149.734 100.026 150.199 99.7984C150.767 99.5039 150.615 96.2929 148.834 93.1199Z" fill="#4C7378"/>
<path d="M155.447 99.1904C155.135 97.0339 154.377 95.1624 153.6 93.9369C152.823 92.6924 152.065 92.0654 151.752 92.1889C151.44 92.3029 151.269 93.2434 151.25 94.6209C151.231 95.9984 151.326 97.7939 151.601 99.7414C151.876 101.689 152.321 103.437 152.728 104.757C153.155 106.078 153.581 106.952 153.818 106.952C154.13 106.971 154.671 106.154 155.097 104.757C155.523 103.351 155.76 101.347 155.447 99.1904Z" fill="#57848A"/>
<path d="M175.287 111.113C177.068 109.887 178.565 108.586 179.579 107.493C180.602 106.42 181.152 105.565 180.972 105.242C180.801 104.947 179.787 104.966 178.319 105.375C176.86 105.783 174.946 106.6 173.079 107.883C171.213 109.165 169.801 110.704 168.892 111.93C168.001 113.174 167.632 114.124 167.783 114.324C167.992 114.561 168.986 114.362 170.36 113.801C171.744 113.269 173.506 112.338 175.287 111.113Z" fill="#689399"/>
<path d="M176.358 101.622C177.599 99.0004 178.3 96.4639 178.584 94.5449C178.859 92.6354 178.755 91.3909 178.432 91.2769C178.11 91.1629 177.305 92.1129 176.282 93.6709C175.258 95.2479 174.036 97.4424 172.852 99.9314C171.668 102.42 170.777 104.776 170.218 106.581C169.659 108.367 169.441 109.593 169.659 109.735C169.915 109.906 170.957 109.194 172.274 107.788C173.563 106.372 175.116 104.244 176.358 101.622Z" fill="#4C7378"/>
<path d="M172.933 102.205C173.768 97.6056 173.589 93.7211 172.534 93.5285C171.479 93.3359 169.946 96.908 169.111 101.507C168.276 106.106 168.455 109.991 169.51 110.183C170.565 110.376 172.098 106.804 172.933 102.205Z" fill="#689399"/>
<path d="M174.131 71.2224C175.183 68.9709 175.931 66.8429 176.358 65.2089C176.784 63.5749 176.86 62.4634 176.566 62.2734C176.272 62.1024 175.344 62.7579 174.197 64.0404C173.051 65.3229 171.715 67.2324 170.626 69.5599C169.536 71.8779 168.958 74.1484 168.721 75.8584C168.484 77.5684 168.57 78.6989 168.816 78.7939C169.11 78.9079 169.924 78.1289 170.929 76.7704C171.895 75.4024 173.079 73.4739 174.131 71.2224Z" fill="#689399"/>
<path d="M171.156 71.2224C171.308 68.8854 171.232 66.7479 171.023 65.1519C170.815 63.5749 170.483 62.5299 170.152 62.4824C169.82 62.4254 169.185 63.3184 168.598 64.8384C168.001 66.3584 167.452 68.5149 167.281 70.9469C167.11 73.3789 167.433 75.6114 167.84 77.1884C168.247 78.7654 168.769 79.7344 169.024 79.7344C169.337 79.7344 169.801 78.7464 170.209 77.2074C170.616 75.6589 171.004 73.5689 171.156 71.2224Z" fill="#4C7378"/>
<path d="M173.951 82.3849C174.671 81.2354 175.249 80.0669 175.694 78.9839C176.121 77.8914 176.433 76.8654 176.623 75.9724C176.992 74.2054 176.898 73.0369 176.585 72.9039C176.272 72.7709 175.457 73.5879 174.377 74.9464C173.856 75.6114 173.25 76.4284 172.615 77.3404C171.99 78.2524 171.317 79.2309 170.654 80.3139C169.991 81.3684 169.375 82.4134 168.835 83.3824C168.295 84.3514 167.83 85.2349 167.461 86.0234C166.722 87.5814 166.334 88.6834 166.532 88.8449C166.75 89.0539 167.849 88.6264 169.29 87.5434C170.01 87.0019 170.805 86.2989 171.601 85.4249C172.435 84.5604 173.231 83.5344 173.951 82.3849Z" fill="#689399"/>
<path d="M165.225 80.8839C165.007 79.7154 164.78 78.6229 164.562 77.6349C164.467 77.1314 164.344 76.6659 164.249 76.2194C164.192 76.0009 164.136 75.7919 164.098 75.5734C164.06 75.3644 164.003 75.1649 163.965 74.9749C163.614 73.4549 163.34 72.3909 162.961 72.3339C162.648 72.2769 161.956 73.1889 161.502 74.9179C161.445 75.1269 161.388 75.3644 161.331 75.5829C161.274 75.8204 161.255 76.0674 161.217 76.3049C161.142 76.8274 161.104 77.3594 161.085 77.9199C161.066 79.0504 161.161 80.2949 161.378 81.5584C161.862 84.0854 162.752 86.1659 163.491 87.6289C164.249 89.0919 164.903 89.9849 165.14 89.9469C165.452 89.8899 165.756 88.8164 165.803 87.1254C165.898 85.4724 165.67 83.2209 165.225 80.8839Z" fill="#4C7378"/>
<path d="M170.805 93.5284C172.179 91.6379 173.079 89.6809 173.544 88.1799C174.008 86.6789 174.065 85.6149 173.752 85.4534C173.458 85.2824 172.587 85.8429 171.459 86.8879C170.332 87.9234 168.958 89.4529 167.641 91.2484C166.324 93.0439 165.348 94.8679 164.732 96.2834C164.107 97.6989 163.861 98.6964 164.05 98.8674C164.287 99.0764 165.272 98.6964 166.551 97.8129C167.859 96.8914 169.432 95.4189 170.805 93.5284Z" fill="#57848A"/>
<path d="M155.741 73.4549C154.652 71.1559 153.24 69.3509 152.074 68.1634C150.909 66.9759 149.981 66.3964 149.687 66.5674C149.393 66.7384 149.497 67.8309 149.962 69.4079C150.426 70.9849 151.222 73.0084 152.217 75.1079C152.719 76.1624 153.221 77.1314 153.676 78.0244C153.894 78.4709 154.14 78.8984 154.358 79.2879C154.576 79.6774 154.784 80.0669 154.974 80.3994C155.751 81.7769 156.328 82.6794 156.584 82.6509C156.878 82.6129 157.266 81.5584 157.266 79.8294C157.266 79.4019 157.247 78.9174 157.172 78.4329C157.115 77.9294 157.02 77.4069 156.897 76.8559C156.689 75.7729 156.281 74.6044 155.741 73.4549Z" fill="#4C7378"/>
<path d="M155.656 81.9004C152.937 78.4614 149.658 76.6279 149.137 77.0934C148.635 77.5399 149.971 80.9884 152.614 84.3324C155.267 87.6764 158.451 89.6429 158.858 89.3484C159.379 88.9969 158.375 85.3394 155.656 81.9004Z" fill="#4C7378"/>
<path d="M157.134 89.6049C156.082 88.4934 154.926 87.6574 153.969 87.1159C153.003 86.5744 152.245 86.3749 151.97 86.5744C151.714 86.7834 151.714 87.6004 152.084 88.6739C152.453 89.7474 153.192 91.1059 154.339 92.2934C155.485 93.4809 156.821 94.2409 157.892 94.6494C158.962 95.0389 159.777 95.0769 159.948 94.8869C160.156 94.6494 159.967 93.8609 159.483 92.8824C158.981 91.8944 158.204 90.7069 157.134 89.6049Z" fill="#689399"/>
<path d="M159.247 99.9504C157.987 97.6514 156.67 95.6279 155.618 94.1934C154.566 92.7589 153.733 91.9324 153.448 92.0179C153.193 92.1129 153.23 93.2244 153.657 94.9154C154.083 96.6064 154.917 98.8864 156.215 101.252C157.513 103.608 159.048 105.574 160.308 106.914C161.568 108.253 162.553 108.975 162.733 108.88C162.97 108.747 162.733 107.674 162.117 106.04C161.483 104.406 160.526 102.259 159.247 99.9504Z" fill="#689399"/>
<path d="M165.092 103.123C165.111 101.394 164.704 99.8554 164.202 98.8009C163.7 97.7464 163.112 97.1479 162.762 97.2049C162.43 97.2619 162.061 97.9839 161.757 99.0479C161.464 100.121 161.217 101.518 161.198 103.057C161.179 104.596 161.407 106.011 161.682 107.085C161.956 108.158 162.307 108.909 162.572 108.937C162.885 108.994 163.482 108.434 164.031 107.398C164.6 106.372 165.083 104.852 165.092 103.123Z" fill="#4C7378"/>
<path d="M166.618 109.289C167.414 107.541 167.669 105.783 167.641 104.482C167.584 103.18 167.253 102.363 166.921 102.287C166.589 102.211 165.973 102.829 165.272 103.807C164.571 104.795 163.794 106.125 163.084 107.674C162.383 109.213 161.918 110.704 161.653 111.892C161.378 113.079 161.322 113.953 161.52 114.105C161.757 114.295 162.61 114.01 163.633 113.193C164.638 112.395 165.803 111.056 166.618 109.289Z" fill="#689399"/>
<path d="M161.558 79.1549C161.634 76.3524 161.303 73.8254 160.838 72.0204C160.393 70.1964 159.834 69.1229 159.484 69.1419C159.152 69.1609 158.726 70.2914 158.375 72.0964C158.024 73.9014 157.731 76.3524 157.655 79.0599C157.579 81.7674 157.788 84.2374 158.043 86.0614C158.318 87.8854 158.669 89.0349 158.934 89.0729C159.247 89.1109 159.862 88.0469 160.412 86.2704C160.99 84.4654 161.483 81.9574 161.558 79.1549Z" fill="#689399"/>
<path d="M175.704 128.754C175.666 129.087 169.441 129.372 161.757 129.372C154.093 129.372 147.849 129.096 147.811 128.754C147.811 128.792 147.811 128.849 147.811 128.887L150.161 153.825L150.549 158.005C150.568 158.746 155.571 159.344 161.738 159.344C167.925 159.344 172.928 158.746 172.928 158.005L173.004 157.131C173.004 157.112 173.004 157.093 173.004 157.074L173.193 155.145L175.675 128.887C175.704 128.849 175.704 128.792 175.704 128.754Z" fill="#DEC7B2"/>
<path d="M173.97 147.279L174.084 146.168C174.046 146.187 174.008 146.206 173.951 146.206C169.763 147.764 165.595 149.322 161.416 150.889C159.01 151.782 156.603 152.694 154.216 153.578C153.865 153.711 153.714 154.138 153.998 154.414C156.224 156.665 159.55 156.732 162.44 157.511C163.349 157.748 164.259 158.09 165.036 158.584H166.627C164.78 156.779 161.956 156.352 159.446 155.82C158.006 155.506 156.518 155.117 155.334 154.224C159.502 152.666 163.652 151.127 167.812 149.559C169.858 148.828 171.914 148.068 173.97 147.279Z" fill="#EBDBCD"/>
<path d="M163.074 137.352C167.11 136.221 171.166 135.1 175.202 133.989L175.391 131.984C166.779 132.174 158.167 132.564 149.554 133.153C149.109 133.191 148.664 133.21 148.218 133.248L148.313 134.255C155.76 133.732 163.216 133.343 170.663 133.124C172.094 133.086 173.534 133.048 174.955 133.01C171.194 134.046 167.433 135.072 163.681 136.126C158.962 137.447 154.254 138.853 149.81 140.933C149.535 141.066 149.251 141.19 148.976 141.323L149.09 142.396C149.308 142.282 149.554 142.178 149.772 142.064C154.045 140.021 158.564 138.615 163.074 137.352Z" fill="#EBDBCD"/>
<path d="M152.747 145.987C157.484 145.911 162.155 144.914 166.769 143.888C169.308 143.327 171.867 142.738 174.434 142.292L174.529 141.266C168.247 142.377 162.07 144.258 155.713 144.828C153.6 145.018 151.449 145.047 149.346 144.866L149.441 145.892C150.54 145.968 151.629 146.006 152.747 145.987Z" fill="#EBDBCD"/>
<path d="M172.52 128.735C172.52 128.992 167.85 129.201 162.099 129.201C156.348 129.201 151.677 128.992 151.677 128.735H147.858C147.858 128.735 147.858 128.735 147.858 128.754C147.896 129.087 154.121 129.372 161.805 129.372C169.47 129.372 175.713 129.096 175.751 128.754C175.751 128.754 175.751 128.754 175.751 128.735H172.52Z" fill="#E8D4C1"/>
<path d="M105.593 59.7464C104.096 65.2944 102.627 70.9659 100.06 76.1244C99.3776 77.5019 98.1365 80.9884 96.1847 80.8554C94.2804 80.7224 92.6697 79.4779 91.836 77.8249C91.0211 76.1909 88.7094 75.7254 87.2029 76.5994C85.5354 77.5874 85.1659 79.6109 85.9807 81.2449C87.4967 84.3134 90.4622 86.4034 93.7214 87.2584C98.0701 88.3889 101.519 86.6124 103.944 82.9834C108.189 76.6374 110.15 68.8189 112.13 61.5324C113.277 57.3144 106.739 55.5189 105.593 59.7464Z" fill="#F0A173"/>
<path d="M106.91 135.328C107.355 137.969 107.914 140.582 108.558 143.185C109.724 147.773 117.19 145.826 116.024 141.237C115.361 138.634 114.821 136.022 114.376 133.381C114.044 131.433 111.467 130.331 109.619 130.816C107.412 131.386 106.578 133.362 106.91 135.328Z" fill="#E3996D"/>
<path d="M133.334 81.4159C133.334 81.4159 135.561 86.9449 135.561 87.4484C135.561 87.9519 125.281 89.3959 121.074 89.1584C117.834 88.9684 110.463 87.7999 110.889 87.0969C111.315 86.3939 113.523 80.8744 113.523 80.8744C113.523 80.8744 118.895 82.2329 123.225 82.0999C127.555 81.9669 133.334 81.4159 133.334 81.4159Z" fill="#E3996D"/>
<path d="M110.87 87.1064C110.87 87.1064 113.855 88.0944 115.569 88.3319C122.922 89.3864 127.678 88.7784 127.678 88.7784C127.678 88.7784 105.858 100.758 105.138 102.316C104.418 103.874 111.306 109.279 113.324 115.35C115.124 120.755 116.327 134.198 116.564 137.095C116.602 137.447 116.394 137.76 116.081 137.912C115.361 138.245 113.892 138.824 111.694 139.233C108.435 139.831 106.322 140.42 106.266 139.679C106.209 138.938 94.1003 116.414 93.655 115.673C93.2097 114.932 86.2649 104.064 85.9712 101.299C85.1091 92.9679 110.87 87.1064 110.87 87.1064Z" fill="#FF8A91"/>
<path d="M118.469 47.0639C118.469 47.0639 112.575 48.2514 109.97 50.4459C107.639 52.4124 103.376 60.7344 102.485 62.5204C102.371 62.7294 102.428 62.9669 102.58 63.1379C103.158 63.7174 104.56 65.0284 105.858 65.7029C107.526 66.5769 110.861 67.2419 110.861 67.2419L111.619 62.1879C111.619 62.1879 109.781 65.5319 111.003 69.1324C111.723 71.2319 112.244 74.0344 112.358 75.4119C112.414 76.1909 112.244 80.6084 112.244 80.6084C112.244 80.6084 116.725 81.7769 121.557 82.1094C126.37 82.4419 134.575 80.8839 134.575 80.8839C134.575 80.8839 134.168 70.6334 134.424 68.7809C134.926 65.0664 133.865 62.3589 133.865 62.3589L135.276 68.0019C135.276 68.0019 140.127 68.6194 141.056 68.1349C141.946 67.6694 143.481 66.3489 144.144 65.7789C144.353 65.6079 144.419 65.3324 144.362 65.0759C143.898 63.1854 141.785 55.3859 138.289 51.5004C136.489 49.5149 129.904 47.4534 128.36 47.4534C126.797 47.4249 118.469 47.0639 118.469 47.0639Z" fill="white"/>
<path d="M133.258 14.1464C136.345 14.1464 138.848 11.7858 138.848 8.87393C138.848 5.962 136.345 3.60143 133.258 3.60143C130.171 3.60143 127.668 5.962 127.668 8.87393C127.668 11.7858 130.171 14.1464 133.258 14.1464Z" fill="#110580"/>
<path d="M108.539 143.66C108.539 143.66 111.334 144.182 112.575 143.774C114.48 143.147 116.356 141.674 116.356 141.674C116.356 141.674 118.724 144.22 119.378 144.828C120.032 145.436 120.856 145.854 121.51 147.004C122.164 148.153 122.211 151.364 117.786 154.376C116.195 155.468 114.196 162.489 110.264 163.885C107.63 164.816 105.545 165.111 103.764 164.294C101.945 163.458 101.49 161.472 105.138 158.765C108.786 156.057 107.952 152.894 108.34 150.908C108.729 148.913 108.539 143.66 108.539 143.66Z" fill="#AB534D"/>
<path d="M78.8369 141.38C78.4674 144.315 78.079 147.251 77.7095 150.177C77.4536 152.143 79.6707 153.834 81.5845 153.834C83.8773 153.834 85.1943 152.143 85.4596 150.177C85.8291 147.241 86.2175 144.306 86.587 141.38C86.8428 139.413 84.6258 137.722 82.712 137.722C80.4097 137.722 79.0927 139.413 78.8369 141.38Z" fill="#FCB58A"/>
<path d="M96.0426 74.8989C98.2691 75.3454 99.965 76.7894 101.576 78.3379C102.722 79.4304 104.314 77.6159 103.167 76.4949C101.244 74.6519 99.1312 73.0084 96.4973 72.4859C94.9625 72.1724 94.4888 74.5854 96.0426 74.8989Z" fill="#FCB58A"/>
<path d="M127.488 39.5114L118.469 39.4544C118.469 39.4544 119.132 48.0709 119.132 48.1279C119.132 49.6479 121.15 50.8734 123.651 50.8734C126.152 50.8734 128.17 49.6479 128.17 48.1279C128.152 48.0899 127.488 39.5114 127.488 39.5114Z" fill="#FCB58A"/>
<path d="M123.282 41.0314C121.614 41.0314 120.003 40.7559 118.525 40.2714L118.639 42.0004C119.662 42.4849 121.273 42.8364 122.903 42.9504C124.333 43.0454 126.351 43.1024 127.716 42.6939L127.564 40.4424C126.19 40.8319 124.76 41.0314 123.282 41.0314Z" fill="#E3996D"/>
<path d="M135.693 87.4199C135.693 87.4199 139.635 91.7614 140.345 94.8109C141.046 97.8604 141.51 102.477 140.497 105.175C139.473 107.864 136.271 111.768 130.444 112.12C120.818 112.699 100.742 109.184 99.8513 109.184C98.9607 109.184 99.3112 115.074 96.2983 123.301C93.5981 130.616 88.7756 142.776 87.7618 145.322C87.6482 145.617 87.3734 145.807 87.0607 145.826C86.0091 145.883 83.5078 145.94 80.9687 145.531C79.1875 145.256 77.88 144.505 77.1694 144.049C76.8378 143.831 76.6673 143.432 76.7052 143.042C77.0178 140.221 78.3727 128.488 79.2064 123.672C80.097 118.599 80.7413 99.0669 83.9626 95.1149C86.7765 91.6569 87.7997 91.2864 90.9642 90.2889C93.816 89.3959 124.276 89.1204 124.276 89.1204L135.693 87.4199Z" fill="#FFADB2"/>
<path d="M76.98 151.592C76.0515 153.321 74.2229 155.715 72.7165 156.713C69.1825 159.088 64.6821 162.299 64.0094 162.973C63.3462 163.638 61.8208 166.517 64.1421 168.065C65.8096 169.158 70.6226 169.585 76.6957 166.583C81.2719 164.322 83.5458 163.838 85.2133 163.201C87.9893 162.175 87.364 159.135 86.786 157.653C86.3407 156.485 86.2081 156.257 85.8954 153.236C85.8196 152.59 85.5638 149.949 85.5638 149.949C85.5638 149.949 83.2142 150.747 80.6371 150.433C78.7517 150.196 77.6906 148.932 77.6906 148.932C77.6906 148.932 77.3211 150.975 76.98 151.592Z" fill="#C7645D"/>
<path d="M138.895 115.644H104.731C104.153 115.644 103.698 115.179 103.698 114.609V111.208C103.698 110.628 104.162 110.172 104.731 110.172H138.895C139.473 110.172 139.928 110.638 139.928 111.208V114.609C139.928 115.179 139.464 115.644 138.895 115.644Z" fill="#AB8868"/>
<path d="M69.8742 61.7889L88.1314 63.6129C88.5578 63.6509 88.9652 63.8884 89.2589 64.2589L108.7 88.4554C108.918 88.7309 108.738 89.1964 108.445 89.1584L89.3347 87.0399C88.9841 87.0019 88.6715 86.8214 88.4251 86.4984L69.6847 62.3114C69.5236 62.1119 69.6468 61.7509 69.8742 61.7889Z" fill="#D7D7E6"/>
<path d="M136.536 66.6054C136.612 66.9569 136.688 67.3084 136.754 67.6599C136.773 67.8119 136.925 68.6099 136.868 68.2869C136.83 68.0114 136.944 68.8854 136.963 69.0849C137.001 69.4554 137.02 69.8259 137.039 70.1964C137.057 70.8804 137.039 71.5739 137.001 72.2769C136.982 72.4859 136.963 72.7044 136.944 72.9039C136.944 72.8469 137.02 72.3814 136.963 72.7899C136.887 73.1984 136.811 73.6259 136.707 74.0344C136.631 74.3479 136.517 74.6519 136.432 74.9464C136.224 75.6304 136.489 74.9654 136.243 75.4499C136.091 75.7254 135.949 76.0294 135.797 76.2859C135.703 76.4379 135.077 77.3404 135.409 76.9129C134.376 78.2144 133.59 78.7844 131.998 79.5159C125.736 82.3944 117.483 80.1144 110.993 78.5659C108.123 77.8819 105.252 77.1314 102.438 76.2479C98.2691 74.9274 96.4973 81.4824 100.638 82.8029C107.639 85.0354 115.01 86.7549 122.325 87.4294C130.71 88.1894 140.014 85.4439 142.97 76.7324C144.268 72.9039 143.974 68.6764 143.121 64.7909C142.155 60.5159 135.617 62.3304 136.536 66.6054Z" fill="#FCB58A"/>
<path d="M134.471 64.5249C135.087 64.1164 141.861 59.2714 141.861 59.2714L144.268 65.6174C144.268 65.6174 143.585 66.8239 140.876 68.2014C138.138 69.5789 135.561 69.2559 135.561 69.2559L134.471 64.5249Z" fill="white"/>
<path d="M130.321 89.0539C130.511 90.7639 130.672 92.4929 130.861 94.1934C131.032 95.7324 131.25 97.2904 131.306 98.8579C131.344 100.159 131.174 101.546 130.217 102.515C129.364 103.37 128.142 103.665 126.977 103.76C125.584 103.874 124.201 103.76 122.808 103.703C121.121 103.627 119.435 103.551 117.748 103.484C114.338 103.332 110.936 103.19 107.544 103.057C105.896 102.981 104.247 102.905 102.599 102.848C101.263 102.791 99.9176 102.772 98.5817 102.905C95.9857 103.161 93.456 104.016 91.8074 106.154C90.102 108.367 89.5999 111.208 89.0314 113.858C88.3113 117.221 87.5913 120.565 86.8618 123.919C86.1322 127.272 85.4216 130.626 84.6921 133.979C84.0763 136.782 83.5267 139.622 82.8067 142.387C82.693 142.814 82.5888 143.261 82.4561 143.688C82.2666 144.315 83.233 144.581 83.4225 143.945C84.1236 141.551 84.6258 139.119 85.1469 136.687C85.8669 133.324 86.587 129.98 87.3165 126.626C88.0366 123.244 88.7756 119.872 89.5051 116.49C89.8367 114.932 90.1494 113.374 90.5284 111.825C90.841 110.486 91.2105 109.165 91.8643 107.94C92.4801 106.771 93.3233 105.783 94.4792 105.118C95.5877 104.453 96.8478 104.111 98.1269 103.95C101.017 103.56 104.039 103.893 106.938 104.026C110.349 104.178 113.75 104.32 117.142 104.453C118.866 104.529 120.572 104.605 122.287 104.672C123.717 104.729 125.176 104.862 126.598 104.786C127.801 104.729 129.061 104.529 130.113 103.874C131.202 103.228 131.932 102.126 132.188 100.881C132.481 99.4849 132.32 98.0599 132.169 96.6634C131.979 94.9534 131.818 93.2244 131.629 91.5239C131.534 90.6879 131.458 89.8709 131.373 89.0349C131.24 88.4174 130.245 88.3984 130.321 89.0539Z" fill="white"/>
<path d="M27.1159 167.875C26.1874 167.543 25.7042 166.536 26.0074 165.614L48.3387 92.2079C48.6513 91.2579 49.6935 90.7449 50.6315 91.0774L52.9622 91.9134C53.9097 92.2459 54.3929 93.3099 54.0328 94.2314L29.3992 166.821C29.0582 167.733 28.0349 168.208 27.1159 167.875Z" fill="#8A6645"/>
<path d="M142.894 167.875C143.822 167.543 144.305 166.536 144.002 165.614L121.69 92.2079C121.377 91.2579 120.335 90.7449 119.397 91.0774L117.066 91.9134C116.119 92.2459 115.636 93.3099 115.996 94.2314L140.648 166.802C140.951 167.733 141.965 168.208 142.894 167.875Z" fill="#8A6645"/>
<path d="M146.56 94.7349H23.4683C22.464 94.7349 21.6492 93.9179 21.6492 92.9109V88.9209C21.6492 87.9139 22.464 87.0969 23.4683 87.0969H146.56C147.565 87.0969 148.379 87.9139 148.379 88.9209V92.9109C148.361 93.9179 147.555 94.7349 146.56 94.7349Z" fill="#C49C77"/>
<path d="M38.1157 158.318C26.8032 156.903 21.7249 164.208 21.706 164.227C21.706 164.208 22.246 164.617 22.246 163.078L21.9902 160.779C21.9902 160.779 21.0238 161.073 20.6543 161.225C19.5079 161.71 18.4657 163.068 18.1531 163.049C17.8594 163.03 16.7793 162.061 15.0928 161.605C13.4064 161.14 11.4262 161.586 11.2367 161.453C11.0662 161.339 11.123 160.75 10.8672 159.99C10.5545 159.097 9.73974 158.081 9.73974 158.081C9.70184 158.119 7.16269 162.983 6.63212 163.971C6.10155 164.959 5.192 166.479 5.05936 169.747C4.86987 174.107 7.79748 172.35 7.79748 172.35L5.76047 170.459H2.83286H1.98016C0.890599 170.459 0 171.533 0 172.834C0 174.136 0.890599 175.209 1.98016 175.209H2.83286H5.76047H51.2947L51.3326 171.124C51.3326 171.067 51.5979 160 38.1157 158.318Z" fill="#110580"/>
<path d="M48.9261 177.052H7.79745C6.4805 177.052 5.42883 175.979 5.42883 174.677C5.42883 173.357 6.49945 172.302 7.79745 172.302H48.9261C50.243 172.302 51.2947 173.376 51.2947 174.677C51.2947 175.969 50.2241 177.052 48.9261 177.052Z" fill="#110580"/>
<path d="M42.2086 164.199C39.6884 163.733 37.0261 163.904 34.7807 165.234C33.189 166.184 31.9099 167.647 31.2278 169.376C30.9909 169.994 30.8204 170.64 30.8014 171.286C29.2855 171.191 27.6559 171.191 26.2442 171.789C25.5052 172.103 24.8704 172.606 24.5767 173.385C24.3019 174.088 24.3019 174.943 24.6146 175.646C24.9651 176.463 25.7041 176.986 26.5947 176.986C26.9453 176.986 26.9453 176.425 26.5947 176.425C25.1546 176.406 24.6525 174.734 25.1167 173.585C25.6757 172.169 27.5422 171.913 28.8591 171.837C29.6171 171.799 30.3561 171.818 31.1141 171.875C31.2656 171.894 31.3888 171.742 31.3888 171.599C31.313 170.26 31.9857 168.854 32.8005 167.771C33.9848 166.194 35.7471 165.13 37.6514 164.721C39.1105 164.408 40.6359 164.465 42.095 164.74C42.4076 164.797 42.5592 164.256 42.2086 164.199Z" fill="#787CCB"/>
<path d="M46.169 176.454C48.0165 176.881 49.9683 176.957 51.8347 177.309C52.9243 177.518 55.2266 178.031 53.2275 178.943C50.7073 180.092 47.287 179.313 44.6152 179.465C41.6686 179.655 38.4473 180.415 36.4861 182.79C34.487 185.203 35.245 190.419 39.2053 189.972C41.5739 189.697 42.6161 187.284 41.0907 185.403C41.0149 185.308 40.9391 185.213 40.8728 185.127C41.1097 185.555 41.356 185.963 41.6118 186.391C41.4413 185.925 41.1665 186.524 41.6876 186.277C42.3034 185.982 42.8151 185.593 43.4688 185.365C44.8426 184.899 46.2827 184.766 47.6944 184.624C50.622 184.348 54.3455 184.386 56.6762 182.306C58.988 180.244 59.3385 176.549 56.6383 174.62C54.0423 172.777 49.0492 172.986 46.1595 173.936C45.0226 174.335 44.871 176.14 46.169 176.454Z" fill="#110580"/>
<path d="M8.33748 166.488C8.45117 167.153 9.03859 167.676 9.67337 167.828C10.3366 167.98 11.104 167.771 11.5588 167.248C11.7483 167.03 11.4261 166.707 11.2461 166.935C10.8956 167.343 10.3176 167.514 9.80602 167.4C9.30387 167.286 8.87752 166.897 8.78277 166.374C8.70698 166.08 8.28063 166.184 8.33748 166.488Z" fill="#787CCB"/>
<path d="M14.6475 167.989C14.6475 168.654 15.2728 169.158 15.8886 169.272C16.6276 169.405 17.3477 169.063 17.9067 168.607C18.1246 168.417 17.8119 168.103 17.594 168.293C17.1677 168.664 16.6087 168.92 16.0402 168.854C15.6139 168.797 15.0928 168.483 15.0928 167.999C15.0928 167.695 14.6475 167.695 14.6475 167.989Z" fill="#787CCB"/>
<path d="M12.5915 170.887C12.1652 170.535 11.663 170.326 11.1325 170.26C11.0377 170.241 10.924 170.317 10.8956 170.393C10.8388 170.488 10.8577 170.583 10.8956 170.668C10.9146 170.687 10.9335 170.725 10.9335 170.744C10.9146 170.668 10.9335 170.763 10.9525 170.782C10.9714 170.82 10.9714 170.858 10.9904 170.915C10.9904 170.934 11.0093 170.953 11.0093 170.991V171.01C11.0093 171.048 11.0093 171.086 11.0283 171.143C11.0472 171.352 11.0472 171.533 11.0662 171.742C11.0662 171.761 11.0662 171.761 11.0662 171.78V171.799V171.818C11.1041 171.932 11.2556 172.008 11.3599 171.989C11.3788 171.989 11.3788 171.989 11.3788 171.989C11.4167 171.97 11.4736 171.951 11.5115 171.913C11.5304 171.894 11.5494 171.875 11.5494 171.875C11.5873 171.837 11.6441 171.818 11.682 171.799C11.7009 171.78 11.7388 171.78 11.7578 171.761C11.7767 171.761 11.7767 171.742 11.7957 171.742C11.8525 171.723 11.9094 171.704 11.9473 171.685C12.1652 171.59 12.4115 171.495 12.5726 171.333C12.6863 171.181 12.7052 170.982 12.5915 170.887ZM11.7957 171.704C11.8146 171.704 11.8146 171.704 11.7957 171.704C11.8146 171.704 11.8525 171.685 11.7957 171.704Z" fill="#787CCB"/>
<path d="M89.1357 19.6184C87.6956 15.3434 83.9721 11.9139 79.5475 10.5174C75.123 9.12092 70.1015 9.73842 66.0654 11.9804C64.0852 13.0729 62.2851 14.6024 61.1766 16.5309C60.0681 18.4594 59.7175 20.8534 60.5323 22.9339C61.5177 25.4419 63.981 27.0949 66.4728 28.2634C69.1541 29.5269 72.8207 30.3629 76.2315 29.5079C79.0454 31.2369 81.8593 32.9849 84.6732 34.7044C84.1521 32.7759 82.5983 28.9474 82.5415 28.9284L82.911 28.8904C84.948 28.1684 86.7955 26.9049 88.1314 25.2519C88.7757 24.4539 89.3347 23.5229 89.5052 22.5064C89.6663 21.5374 89.4484 20.5494 89.1357 19.6184Z" fill="#FCFAF8"/>
<path d="M69.1162 7.80992C68.0077 4.48492 64.54 2.57542 61.1861 1.51142C53.5402 -0.89208 45.0226 -0.417081 37.6894 2.85092C34.2596 4.37092 30.9341 6.67942 29.4277 10.1279C28.1297 13.1394 28.4044 16.7019 29.9109 19.6184C31.4173 22.5349 34.0228 24.7959 36.9883 26.1544C35.9556 28.8144 34.3733 32.0634 33.3596 34.7139C35.4534 33.4694 37.5662 32.2249 39.6601 30.9804C40.7307 30.3534 41.8297 29.6979 43.033 29.3274C44.6626 28.8239 46.4059 28.8619 48.1113 28.7479C52.8864 28.4724 57.6521 27.0379 61.5556 24.2734C65.4401 21.4899 68.4245 17.2909 69.2962 12.5789C69.5615 11.0019 69.6088 9.33942 69.1162 7.80992Z" fill="white"/>
<path d="M62.9104 41.0124C62.7588 39.8059 61.8872 38.8179 60.9492 38.0579C58.249 35.9394 54.6013 35.2554 51.2095 35.7969C49.9494 36.0059 48.6893 36.3764 47.6376 37.0984C45.468 38.5994 44.53 41.6109 45.3827 44.0999C45.4964 44.4514 45.9227 44.8219 45.9227 44.8219C44.8711 46.8264 44.2552 48.3084 43.3646 50.3699C45.4395 48.7929 47.6945 47.4154 50.0915 46.2659L50.3852 46.4179C53.2181 48.1469 56.9605 47.3109 59.8123 45.6199C61.4608 44.6319 63.1473 42.9789 62.9104 41.0124Z" fill="white"/>
<path d="M112.282 59.7654C112.282 59.7654 111.173 62.9954 110.908 64.1449C110.614 65.4844 110.614 67.1944 110.614 67.1944L109.525 66.9569C109.525 66.9569 109.799 65.2279 110.51 63.3944C110.87 62.4444 112.282 59.7654 112.282 59.7654Z" fill="#E0E0E0"/>
<path d="M133.855 61.8269C133.855 61.8269 134.281 64.9619 134.357 65.6364C134.528 67.0329 134.471 69.1609 134.471 69.1609L135.561 69.2369C135.561 69.2369 135.324 66.5959 134.821 64.8574C134.594 64.0214 133.855 61.8269 133.855 61.8269Z" fill="#E0E0E0"/>
<path d="M130.596 41.7724C129.042 41.7724 127.801 39.5779 127.801 36.7944C127.801 34.0109 129.023 31.8164 130.596 31.8164C132.15 31.8164 133.391 34.0109 133.391 36.7944C133.391 39.6064 132.169 41.7724 130.596 41.7724ZM130.596 32.5099C129.449 32.5099 128.483 34.4764 128.483 36.8134C128.483 39.1504 129.449 41.1169 130.596 41.1169C131.742 41.1169 132.709 39.1504 132.709 36.8134C132.709 34.4764 131.742 32.5099 130.596 32.5099Z" fill="white"/>
<path d="M142.704 42.7984C143.926 42.2189 143.832 41.6299 143.538 40.5659L137.522 23.5799C135.722 17.5664 129.876 13.1394 122.931 13.1394C118.412 13.1394 115.816 15.0489 115.816 15.0489C115.854 15.0489 118.743 15.7519 120.894 17.7754C123.064 19.8179 121.766 22.2879 124.362 24.7389C126.105 26.3729 129.137 27.1899 129.137 27.1899C129.137 27.4274 129.62 38.9984 129.819 43.9004C129.895 45.6294 130.871 45.4584 134.319 44.9739C138.896 44.3374 140.686 43.7389 142.704 42.7984Z" fill="#110580"/>
<path d="M121.112 23.0384C119.331 23.0384 117.796 24.0454 117.019 25.5274C116.375 25.1949 115.664 25.0239 114.925 25.0239C114.688 25.0239 114.442 25.0429 114.205 25.0809C113.627 23.1714 111.874 21.7749 109.78 21.7749C107.222 21.7749 105.147 23.8554 105.147 26.4204C105.147 28.9854 107.222 31.0659 109.78 31.0659C112.339 31.0659 114.413 28.9854 114.413 26.4204C114.413 26.2114 114.395 25.9929 114.357 25.7934C115.171 25.6794 116.024 25.8124 116.744 26.2019C116.574 26.6674 116.488 27.1709 116.488 27.6839C116.488 30.2489 118.563 32.3294 121.121 32.3294C123.679 32.3294 125.754 30.2489 125.754 27.6839C125.754 25.1189 123.67 23.0384 121.112 23.0384ZM109.78 30.3344C107.611 30.3344 105.877 28.5674 105.877 26.4204C105.877 24.2449 107.639 22.5064 109.78 22.5064C111.95 22.5064 113.684 24.2734 113.684 26.4204C113.684 28.5769 111.931 30.3344 109.78 30.3344ZM121.112 31.5979C118.942 31.5979 117.208 29.8309 117.208 27.6839C117.208 25.5084 118.971 23.7699 121.112 23.7699C123.282 23.7699 125.015 25.5369 125.015 27.6839C125.044 29.8309 123.282 31.5979 121.112 31.5979Z" fill="#E0E0E0"/>
<path d="M98.2595 82.6984L94.574 82.3279C92.2622 82.0904 90.4621 80.3614 90.6137 78.4614L90.6705 77.8154C90.8221 75.9439 92.8401 74.5854 95.1519 74.8229L98.8375 75.1934C101.149 75.4309 102.949 77.1599 102.798 79.0599L102.741 79.7059C102.599 81.6059 100.581 82.9454 98.2595 82.6984Z" fill="#FCB58A"/>
<path d="M50.0725 42.4279C50.6429 42.4279 51.1052 41.9856 51.1052 41.4399C51.1052 40.8943 50.6429 40.4519 50.0725 40.4519C49.5022 40.4519 49.0398 40.8943 49.0398 41.4399C49.0398 41.9856 49.5022 42.4279 50.0725 42.4279Z" fill="#D6D7F0"/>
<path d="M53.6729 42.4279C54.2432 42.4279 54.7056 41.9856 54.7056 41.4399C54.7056 40.8943 54.2432 40.4519 53.6729 40.4519C53.1025 40.4519 52.6401 40.8943 52.6401 41.4399C52.6401 41.9856 53.1025 42.4279 53.6729 42.4279Z" fill="#D6D7F0"/>
<path d="M57.0173 42.4279C57.5877 42.4279 58.05 41.9856 58.05 41.4399C58.05 40.8943 57.5877 40.4519 57.0173 40.4519C56.447 40.4519 55.9846 40.8943 55.9846 41.4399C55.9846 41.9856 56.447 42.4279 57.0173 42.4279Z" fill="#D6D7F0"/>
<path d="M74.8765 23.9124C74.8386 24.1309 74.8007 24.3779 74.8765 24.5964C74.9334 24.7864 75.0281 24.9669 75.1702 25.0999C75.2839 25.2139 75.3881 25.2899 75.5397 25.3374C75.6724 25.4134 75.8145 25.4514 75.985 25.4324C76.1935 25.4324 76.3924 25.3754 76.563 25.2804C76.563 25.2804 76.5819 25.2804 76.5819 25.2614C76.4872 25.2994 76.3924 25.3374 76.3072 25.3754H76.3261C76.2124 25.3944 76.1177 25.4134 76.0135 25.4134C76.0135 25.4134 76.0135 25.4134 76.0324 25.4134C76.1461 25.3944 76.2408 25.3754 76.3451 25.3754C76.4398 25.3374 76.5346 25.2994 76.6198 25.2614C76.6956 25.2044 76.7904 25.1284 76.8567 25.0714C76.9135 24.9954 76.9893 24.9004 77.0462 24.8339C77.0841 24.7389 77.122 24.6439 77.1599 24.5584C77.1788 24.4444 77.1978 24.3494 77.1978 24.2449C77.1788 24.1309 77.1599 24.0359 77.1599 23.9314C77.122 23.7794 77.0462 23.6369 76.942 23.5229C76.8851 23.4279 76.8093 23.3519 76.724 23.3044C76.6482 23.2284 76.5535 23.1714 76.4682 23.1524C76.3735 23.0954 76.2787 23.0764 76.1745 23.0764C76.0608 23.0384 75.9661 23.0384 75.8619 23.0764C75.7482 23.0764 75.6534 23.0954 75.5682 23.1524C75.4734 23.1904 75.3787 23.2284 75.3124 23.3044C75.2176 23.3614 75.1418 23.4374 75.0944 23.5229C74.9807 23.6369 74.9049 23.7604 74.8765 23.9124Z" fill="#D6D7F0"/>
<path d="M72.1669 17.1009C72.6311 16.3789 73.8344 15.9894 74.6681 16.0749C75.0566 16.1129 75.8524 16.3124 76.0798 16.6924C76.2504 16.9489 76.2883 16.6544 76.004 16.9489C75.8335 17.1199 75.5208 17.2244 75.3219 17.3574C74.0049 18.2314 72.6406 20.7204 74.6208 21.6989C75.3977 22.0884 76.4209 21.6229 76.402 20.6729C76.402 20.2454 76.2504 19.9699 76.4778 19.5994C76.6293 19.3619 76.9988 19.1719 77.2168 19.0199C77.8326 18.5734 78.42 18.1079 78.5527 17.3099C78.7706 15.8754 77.501 14.7829 76.2788 14.3174C74.9429 13.8139 73.4459 13.9849 72.2806 14.8019C71.6553 15.2484 70.4141 16.6734 71.5605 17.2529C71.7784 17.3764 72.0342 17.3194 72.1669 17.1009Z" fill="#D6D7F0"/>
<path d="M58.5426 87.1064H55.454C53.3601 87.1064 51.6168 85.4534 51.5126 83.3539L51.0104 74.2339C50.9915 73.9014 51.2663 73.6069 51.6073 73.6069H62.3893C62.7209 73.6069 63.0051 73.9014 62.9862 74.2339L62.484 83.3539C62.3703 85.4534 60.627 87.1064 58.5426 87.1064Z" fill="#FF5856"/>
<path d="M62.8725 75.6589L62.7967 77.0554C64.0757 77.3119 65.0232 78.4519 65.0232 79.8009C65.0232 81.2639 63.8957 82.4609 62.4651 82.5844L62.3893 83.9809C64.6347 83.8859 66.4065 82.0524 66.4065 79.8009C66.3875 77.7109 64.8716 75.9819 62.8725 75.6589Z" fill="#FF5856"/>
<path d="M57.7942 71.4694C57.7942 71.4694 55.1413 69.0184 55.2361 67.2134C55.3687 64.4679 57.8321 63.4229 56.8846 60.8294C56.4393 59.6039 54.5918 55.6139 54.5918 55.6139C54.5918 55.6139 57.652 58.6444 58.7227 60.5159C59.708 62.2069 59.5943 64.8954 58.5142 66.1779C56.2025 68.9804 57.7942 71.4694 57.7942 71.4694Z" fill="#DCDCED"/>
<path d="M60.3521 10.7644H37.7271C37.206 10.7644 36.7797 10.3369 36.7797 9.81443C36.7797 9.29193 37.206 8.86443 37.7271 8.86443H60.3521C60.8732 8.86443 61.2996 9.29193 61.2996 9.81443C61.2996 10.3369 60.8732 10.7644 60.3521 10.7644Z" fill="#D6D7F0"/>
<path d="M52.9433 19.9034H37.7274C37.2063 19.9034 36.7799 19.4759 36.7799 18.9534C36.7799 18.4309 37.2063 18.0034 37.7274 18.0034H52.9528C53.4739 18.0034 53.9002 18.4309 53.9002 18.9534C53.8908 19.4759 53.4644 19.9034 52.9433 19.9034Z" fill="#D6D7F0"/>
<path d="M47.666 15.2199H37.7178C37.1967 15.2199 36.7704 14.7924 36.7704 14.2699C36.7704 13.7474 37.1967 13.3199 37.7178 13.3199H47.666C48.1871 13.3199 48.6135 13.7474 48.6135 14.2699C48.6135 14.8114 48.1871 15.2199 47.666 15.2199Z" fill="#D6D7F0"/>
<path d="M58.4858 15.2199H52.2421C51.721 15.2199 51.2947 14.7924 51.2947 14.2699C51.2947 13.7474 51.721 13.3199 52.2421 13.3199H58.4858C59.0069 13.3199 59.4332 13.7474 59.4332 14.2699C59.4238 14.8114 58.9974 15.2199 58.4858 15.2199Z" fill="#D6D7F0"/>
</svg>
